<svg xmlns="http://www.w3.org/2000/svg" xmlns:xlink="http://www.w3.org/1999/xlink" width="1080" zoomAndPan="magnify" viewBox="0 0 810 809.999993" height="1080" preserveAspectRatio="xMidYMid meet" version="1.0"><path fill="#000000" d="M 600.203125 56.679688 L 596.65625 60.386719 L 581.820312 75.222656 C 581.980469 75.0625 582.140625 74.902344 582.304688 74.902344 C 581.496094 75.867188 581.496094 77.640625 582.140625 79.898438 L 580.207031 81.835938 C 577.625 81.191406 575.691406 81.511719 574.402344 82.640625 L 563.273438 93.769531 C 563.4375 93.605469 563.597656 93.445312 563.757812 93.445312 C 562.953125 94.414062 562.953125 96.1875 563.597656 98.445312 L 561.664062 100.378906 C 559.082031 99.734375 557.148438 100.058594 555.855469 101.1875 L 544.730469 112.3125 C 544.890625 112.152344 545.054688 111.992188 545.214844 111.992188 C 544.40625 112.957031 544.40625 114.730469 545.054688 116.988281 L 544.40625 117.632812 C 541.828125 116.988281 539.890625 117.3125 538.601562 118.441406 L 438.460938 218.582031 C 432.816406 224.226562 460.554688 258.734375 496.675781 297.113281 C 472.808594 319.851562 437.332031 353.878906 405.082031 383.226562 C 372.828125 353.878906 337.191406 320.011719 313.003906 296.632812 C 349.125 258.414062 376.859375 223.902344 371.214844 218.097656 L 271.074219 117.957031 C 269.945312 116.828125 268.011719 116.503906 265.269531 117.152344 L 264.625 116.503906 C 265.269531 114.246094 265.269531 112.472656 264.464844 111.507812 C 264.625 111.667969 264.785156 111.667969 264.945312 111.828125 L 261.238281 108.121094 L 257.53125 104.410156 L 253.820312 100.703125 C 252.691406 99.574219 250.757812 99.25 248.015625 99.894531 L 246.078125 97.960938 C 246.726562 95.703125 246.726562 93.929688 245.917969 92.960938 C 246.078125 93.125 246.242188 93.125 246.402344 93.285156 L 242.695312 89.574219 L 238.984375 85.867188 L 235.277344 82.15625 C 234.148438 81.027344 232.210938 80.707031 229.46875 81.351562 L 227.535156 79.417969 C 228.179688 77.160156 228.179688 75.382812 227.375 74.417969 C 227.535156 74.578125 227.695312 74.578125 227.859375 74.738281 L 224.472656 71.351562 L 220.761719 67.644531 L 217.054688 63.933594 L 213.507812 60.386719 L 209.796875 56.679688 C 192.21875 39.101562 0 231.320312 17.578125 248.898438 L 21.285156 252.609375 L 24.996094 256.316406 L 36.121094 267.441406 C 35.960938 267.28125 35.800781 267.121094 35.800781 266.960938 C 36.929688 267.765625 38.863281 267.765625 41.765625 266.796875 L 43.054688 268.089844 C 42.25 271.152344 42.25 273.570312 43.699219 274.859375 L 54.828125 285.988281 C 54.667969 285.828125 54.503906 285.664062 54.503906 285.503906 C 55.632812 286.308594 57.570312 286.308594 60.472656 285.34375 L 61.761719 286.632812 C 60.957031 289.695312 60.957031 292.117188 62.40625 293.40625 L 66.117188 297.113281 L 69.824219 300.824219 L 73.535156 304.53125 C 73.371094 304.371094 73.210938 304.210938 73.210938 304.050781 C 74.339844 304.855469 76.273438 304.855469 79.179688 303.886719 C 78.371094 306.953125 78.371094 309.371094 79.824219 310.660156 L 179.964844 410.800781 C 185.769531 416.445312 220.921875 388.0625 259.625 351.457031 C 281.71875 374.355469 313.164062 407.414062 341.382812 438.214844 C 294.941406 472.5625 254.949219 496.269531 242.046875 497.398438 C 238.5 497.71875 234.628906 495.460938 230.597656 492.238281 L 236.242188 486.59375 C 238.179688 484.65625 238.179688 481.273438 236.242188 479.335938 L 225.117188 468.210938 C 223.179688 466.273438 219.796875 466.273438 217.859375 468.210938 L 211.410156 474.660156 C 206.25 470.789062 201.574219 469.175781 197.863281 472.886719 C 186.738281 484.011719 91.109375 579.640625 91.109375 579.640625 C 91.109375 579.640625 79.660156 588.832031 87.722656 598.34375 L 80.46875 605.601562 C 78.53125 607.535156 78.53125 610.921875 80.46875 612.859375 L 91.59375 623.984375 C 93.53125 625.921875 96.917969 625.921875 98.851562 623.984375 L 103.6875 619.148438 C 108.203125 626.726562 111.75 635.113281 113.042969 643.660156 C 115.300781 659.945312 122.074219 682.683594 141.421875 703.808594 C 141.585938 703.96875 141.746094 704.292969 141.90625 704.453125 C 142.390625 704.9375 143.035156 705.421875 143.519531 705.90625 C 144.003906 706.386719 144.488281 707.03125 144.972656 707.515625 C 145.132812 707.679688 145.292969 707.839844 145.617188 708 C 166.742188 727.351562 189.476562 734.125 205.765625 736.382812 C 214.152344 737.511719 222.699219 741.21875 230.277344 745.734375 L 225.4375 750.574219 C 223.503906 752.507812 223.503906 755.894531 225.4375 757.828125 L 236.566406 768.957031 C 238.5 770.890625 241.886719 770.890625 243.824219 768.957031 L 251.078125 761.699219 C 260.59375 769.761719 269.785156 758.3125 269.785156 758.3125 C 269.785156 758.3125 365.574219 662.527344 376.539062 651.558594 C 380.246094 647.851562 378.472656 643.175781 374.765625 638.015625 L 381.214844 631.5625 C 383.148438 629.628906 383.148438 626.242188 381.214844 624.308594 L 370.085938 613.179688 C 368.152344 611.246094 364.765625 611.246094 362.832031 613.179688 L 357.1875 618.824219 C 353.960938 614.792969 351.703125 610.921875 352.027344 607.375 C 353.15625 595.121094 374.441406 558.515625 406.046875 515.136719 C 437.492188 558.515625 458.941406 595.121094 460.070312 607.375 C 460.390625 610.921875 458.132812 614.792969 454.910156 618.824219 L 449.265625 613.179688 C 447.332031 611.246094 443.945312 611.246094 442.007812 613.179688 L 430.882812 624.308594 C 428.945312 626.242188 428.945312 629.628906 430.882812 631.5625 L 437.332031 638.015625 C 433.460938 643.175781 431.847656 647.851562 435.558594 651.558594 C 446.683594 662.6875 542.3125 758.3125 542.3125 758.3125 C 542.3125 758.3125 551.503906 769.761719 561.015625 761.699219 L 568.273438 768.957031 C 570.210938 770.890625 573.59375 770.890625 575.53125 768.957031 L 586.65625 757.828125 C 588.59375 755.894531 588.59375 752.507812 586.65625 750.574219 L 581.820312 745.734375 C 589.398438 741.21875 597.785156 737.671875 606.332031 736.382812 C 622.617188 734.125 645.355469 727.351562 666.480469 708 C 666.640625 707.839844 666.964844 707.679688 667.125 707.515625 C 667.609375 707.03125 668.09375 706.386719 668.578125 705.90625 C 669.058594 705.421875 669.707031 704.9375 670.1875 704.453125 C 670.351562 704.292969 670.511719 704.128906 670.671875 703.808594 C 690.023438 682.683594 696.796875 659.945312 699.054688 643.660156 C 700.183594 635.273438 703.890625 626.726562 708.40625 619.148438 L 713.246094 623.984375 C 715.179688 625.921875 718.566406 625.921875 720.5 623.984375 L 731.628906 612.859375 C 733.5625 610.921875 733.5625 607.535156 731.628906 605.601562 L 724.371094 598.34375 C 732.433594 588.832031 720.984375 579.640625 720.984375 579.640625 C 720.984375 579.640625 625.199219 483.851562 614.234375 472.886719 C 610.523438 469.175781 605.847656 470.949219 600.6875 474.660156 L 594.238281 468.210938 C 592.300781 466.273438 588.914062 466.273438 586.980469 468.210938 L 575.851562 479.335938 C 573.917969 481.273438 573.917969 484.65625 575.851562 486.59375 L 581.496094 492.238281 C 577.464844 495.460938 573.59375 497.71875 570.046875 497.398438 C 557.148438 496.269531 517.15625 472.5625 470.710938 438.214844 C 498.933594 407.414062 530.378906 374.359375 552.46875 351.457031 C 591.171875 388.066406 626.328125 416.445312 632.132812 410.800781 L 732.273438 310.660156 C 733.5625 309.371094 733.726562 307.113281 732.917969 303.886719 C 735.660156 304.855469 737.757812 304.855469 738.886719 304.050781 C 738.722656 304.210938 738.722656 304.371094 738.5625 304.53125 L 749.6875 293.40625 C 750.980469 292.117188 751.140625 289.859375 750.335938 286.632812 L 751.625 285.34375 C 754.367188 286.3125 756.460938 286.3125 757.589844 285.503906 C 757.429688 285.664062 757.429688 285.828125 757.269531 285.988281 L 760.976562 282.277344 L 764.6875 278.570312 L 768.394531 274.859375 C 769.683594 273.570312 769.847656 271.3125 769.039062 268.089844 L 770.332031 266.796875 C 773.070312 267.765625 775.167969 267.765625 776.296875 266.960938 C 776.136719 267.121094 776.136719 267.28125 775.972656 267.445312 L 794.519531 248.898438 C 810 231.320312 617.941406 39.101562 600.203125 56.679688 Z M 223.179688 262.28125 C 219.796875 265.667969 214.957031 266.636719 210.601562 265.347656 C 209.3125 260.992188 210.28125 256.15625 213.667969 252.769531 C 217.054688 249.382812 221.890625 248.414062 226.246094 249.703125 C 227.535156 254.21875 226.566406 259.058594 223.179688 262.28125 Z M 273.011719 674.457031 C 244.46875 696.390625 203.992188 694.9375 178.511719 669.460938 C 153.035156 643.980469 151.421875 603.503906 173.515625 574.960938 C 202.054688 553.03125 242.53125 554.484375 268.011719 579.960938 C 293.488281 605.441406 294.941406 645.917969 273.011719 674.457031 Z M 541.988281 579.960938 C 567.46875 554.484375 607.945312 552.871094 636.484375 574.960938 C 658.417969 603.503906 656.964844 643.980469 631.488281 669.460938 C 606.007812 694.9375 565.53125 696.550781 536.988281 674.460938 C 515.058594 645.917969 516.671875 605.441406 541.988281 579.960938 Z M 599.398438 265.347656 C 595.042969 266.636719 590.203125 265.667969 586.820312 262.28125 C 583.433594 258.898438 582.464844 254.058594 583.753906 249.703125 C 588.109375 248.414062 592.945312 249.382812 596.332031 252.769531 C 599.558594 256.15625 600.6875 260.992188 599.398438 265.347656 Z M 599.398438 265.347656 " fill-opacity="1" fill-rule="nonzero"/><path fill="#000000" d="M 414.273438 391.449219 C 413.464844 390.644531 412.5 389.839844 411.691406 389.191406 C 413.464844 387.582031 415.402344 385.808594 417.175781 384.195312 C 468.132812 338.074219 507.964844 302.757812 508.609375 302.113281 C 508.609375 302.113281 470.550781 340.65625 419.59375 386.773438 C 417.820312 388.386719 416.046875 390 414.273438 391.449219 Z M 297.683594 531.90625 L 313.324219 547.546875 C 322.839844 557.0625 338.480469 556.417969 347.671875 546.097656 L 391.695312 496.589844 C 390.082031 494.65625 388.472656 492.558594 386.695312 490.300781 C 349.285156 529.164062 325.582031 545.453125 298.8125 530.292969 C 297.84375 529.808594 296.875 531.101562 297.683594 531.90625 Z M 500.867188 240.511719 L 563.921875 177.460938 C 570.371094 171.011719 580.53125 170.042969 586.820312 175.527344 C 616.328125 200.683594 643.742188 228.097656 668.414062 257.121094 C 673.738281 263.410156 672.929688 273.570312 666.480469 280.019531 L 603.589844 342.910156 C 577.625 309.371094 534.410156 266.152344 500.867188 240.511719 Z M 572.464844 276.636719 C 585.207031 289.375 605.847656 289.375 618.585938 276.636719 C 631.324219 263.894531 631.324219 243.253906 618.585938 230.515625 C 605.847656 217.777344 585.207031 217.777344 572.464844 230.515625 C 559.726562 243.253906 559.726562 264.058594 572.464844 276.636719 Z M 443.460938 220.035156 L 445.71875 217.777344 C 451.363281 212.132812 468.132812 220.679688 489.417969 236.644531 L 557.953125 168.109375 C 566.015625 160.046875 579.078125 159.5625 587.625 166.980469 C 621.488281 196.003906 652.933594 227.613281 681.476562 260.832031 C 688.894531 269.378906 688.410156 282.441406 680.347656 290.503906 L 611.976562 358.875 C 628.261719 380.648438 637.132812 397.738281 631.488281 403.382812 L 629.230469 405.640625 C 650.675781 384.195312 464.90625 198.425781 443.460938 220.035156 Z M 492.320312 238.738281 C 530.054688 267.605469 580.851562 318.238281 609.878906 356.136719 L 677.929688 288.085938 C 684.703125 281.3125 685.1875 270.347656 678.898438 263.089844 C 650.515625 230.03125 619.070312 198.585938 585.367188 169.558594 C 578.109375 163.269531 567.144531 163.753906 560.371094 170.527344 Z M 449.75 422.25 C 451.363281 423.542969 452.972656 424.832031 454.425781 426.121094 L 535.378906 335.332031 C 501.675781 367.421875 473.617188 396.609375 449.75 422.25 Z M 701.957031 258.25 C 668.414062 218.257812 631.164062 181.007812 591.171875 147.46875 C 581.820312 139.566406 571.660156 131.988281 561.339844 125.214844 C 560.050781 124.40625 554.40625 121.183594 552.792969 120.375 C 554.890625 121.664062 558.921875 124.085938 561.179688 125.375 C 571.339844 132.308594 581.175781 140.210938 590.527344 148.113281 C 630.035156 182.136719 667.125 219.226562 701.152344 258.734375 C 708.570312 267.605469 716.148438 276.957031 722.757812 286.632812 C 724.371094 288.890625 727.273438 294.050781 728.886719 296.632812 C 727.273438 293.890625 724.855469 289.214844 722.921875 286.472656 C 716.632812 276.636719 709.375 267.121094 701.957031 258.25 Z M 574.886719 274.214844 C 563.597656 262.929688 563.597656 244.382812 574.886719 232.933594 C 586.171875 221.644531 604.71875 221.644531 616.167969 232.933594 C 627.617188 244.222656 627.457031 262.765625 616.167969 274.214844 C 604.71875 285.664062 586.171875 285.664062 574.886719 274.214844 Z M 615.039062 246.15625 C 613.75 243.578125 611.976562 241.320312 609.234375 239.867188 C 614.554688 248.414062 614.394531 258.898438 609.234375 267.441406 C 611.8125 265.992188 613.75 263.734375 615.039062 261.152344 C 614.234375 264.058594 612.941406 266.636719 611.328125 269.539062 C 614.554688 267.605469 616.652344 264.703125 618.101562 261.316406 C 617.136719 264.863281 615.683594 268.410156 613.425781 271.476562 C 625.519531 263.734375 625.519531 243.414062 613.425781 235.675781 C 615.683594 238.902344 617.136719 242.449219 618.101562 245.996094 C 616.8125 242.609375 614.554688 239.707031 611.328125 237.773438 C 612.941406 240.511719 614.234375 243.253906 615.039062 246.15625 Z M 584.238281 242.285156 C 577.949219 248.574219 577.949219 258.574219 584.238281 264.863281 C 590.527344 271.152344 600.527344 271.152344 606.816406 264.863281 C 613.105469 258.574219 613.105469 248.574219 606.816406 242.285156 C 600.527344 236.160156 590.527344 236.160156 584.238281 242.285156 Z M 577.625 271.476562 C 575.371094 268.25 573.917969 264.703125 572.949219 261.152344 C 574.242188 264.539062 576.5 267.441406 579.722656 269.378906 C 578.109375 266.796875 576.820312 263.894531 576.015625 260.992188 C 577.304688 263.574219 579.078125 265.832031 581.820312 267.28125 C 576.5 258.734375 576.660156 248.253906 581.820312 239.707031 C 579.238281 241.15625 577.304688 243.414062 576.015625 245.996094 C 576.820312 243.09375 578.109375 240.511719 579.722656 237.609375 C 576.5 239.546875 574.402344 242.449219 572.949219 245.835938 C 573.917969 242.285156 575.371094 238.738281 577.625 235.515625 C 565.53125 243.414062 565.53125 263.734375 577.625 271.476562 Z M 463.617188 430.796875 C 509.738281 379.839844 545.214844 339.847656 545.859375 339.203125 C 545.859375 339.203125 507.15625 377.421875 461.039062 428.378906 C 460.554688 429.023438 460.070312 429.507812 459.425781 430.152344 C 460.390625 430.960938 461.359375 431.605469 462.164062 432.25 C 462.8125 431.765625 463.132812 431.28125 463.617188 430.796875 Z M 645.679688 203.421875 C 705.988281 263.734375 730.5 300.664062 728.566406 307.597656 L 728.566406 307.757812 L 636.164062 400.160156 L 636.484375 397.578125 C 636.96875 393.226562 634.066406 383.226562 616.972656 360.328125 L 616.488281 359.683594 L 684.863281 291.308594 C 692.925781 283.246094 693.410156 270.023438 685.992188 261.316406 C 656 226.484375 622.777344 193.101562 587.140625 162.464844 C 578.433594 154.886719 565.210938 155.367188 557.148438 163.433594 L 488.613281 231.964844 L 487.96875 231.484375 C 465.550781 214.710938 455.714844 211.96875 451.523438 212.453125 L 448.941406 212.777344 L 541.34375 120.375 L 541.503906 120.375 C 548.4375 118.601562 585.367188 143.113281 645.679688 203.421875 Z M 468.457031 216.484375 L 556.339844 128.601562 C 553.597656 126.824219 550.859375 125.214844 548.117188 123.921875 L 459.746094 212.292969 C 462.164062 213.261719 465.070312 214.550781 468.457031 216.484375 C 468.292969 216.484375 468.457031 216.484375 468.457031 216.484375 Z M 583.433594 148.597656 C 580.367188 146.015625 577.144531 143.597656 574.078125 141.179688 C 570.53125 138.4375 567.304688 136.179688 563.921875 133.597656 L 476.355469 221.164062 C 480.550781 223.902344 484.582031 226.804688 488.613281 229.707031 C 494.578125 225.355469 559.726562 154.402344 566.5 156.335938 C 566.5 156.335938 573.59375 149.242188 573.59375 149.242188 C 575.046875 147.144531 578.753906 147.304688 583.433594 148.597656 Z M 701.152344 266.476562 L 693.085938 274.539062 C 693.410156 281.148438 690.992188 287.921875 686.316406 292.597656 L 618.910156 360.003906 C 625.683594 369.195312 632.617188 378.710938 636.808594 389.355469 L 725.179688 300.984375 C 718.890625 288.730469 709.859375 277.28125 701.152344 266.476562 Z M 680.671875 252.609375 C 683.414062 255.832031 686.476562 258.898438 688.894531 262.445312 C 689.378906 263.25 689.863281 263.894531 690.347656 264.703125 L 695.507812 259.542969 C 693.410156 257.121094 691.3125 254.542969 688.894531 251.960938 C 686.476562 249.222656 684.058594 246.480469 681.476562 243.578125 C 682.605469 247.769531 682.445312 250.996094 680.671875 252.609375 Z M 745.820312 235.996094 C 752.269531 244.222656 758.71875 252.609375 763.71875 261.800781 C 758.882812 252.445312 752.753906 243.898438 746.304688 235.515625 C 726.953125 210.679688 705.34375 187.621094 683.25 165.207031 C 660.835938 143.113281 637.777344 121.503906 612.941406 102.152344 C 604.558594 95.863281 596.011719 89.574219 586.65625 84.898438 C 596.011719 89.738281 604.394531 96.1875 612.621094 102.636719 C 637.292969 122.3125 660.191406 143.917969 682.445312 166.011719 C 704.539062 188.425781 726.144531 211.324219 745.820312 235.996094 Z M 706.632812 253.414062 C 673.089844 213.421875 635.839844 176.171875 595.847656 142.628906 C 586.496094 134.726562 576.335938 127.148438 566.015625 120.375 C 564.726562 119.570312 559.082031 116.34375 557.46875 115.539062 C 559.566406 116.828125 563.597656 119.246094 565.855469 120.535156 C 576.015625 127.472656 585.851562 135.371094 595.203125 143.273438 C 634.710938 177.300781 671.800781 214.390625 705.828125 253.898438 C 713.246094 262.765625 720.824219 272.121094 727.4375 281.796875 C 729.046875 284.054688 731.949219 289.214844 733.5625 291.792969 C 731.949219 289.050781 729.53125 284.375 727.597656 281.632812 C 721.46875 271.957031 714.050781 262.445312 706.632812 253.414062 Z M 368.796875 640.757812 C 361.703125 633.984375 354.929688 627.050781 349.125 619.148438 C 346.382812 615.277344 343.800781 611.246094 343.15625 606.40625 C 343.480469 619.148438 357.347656 633.5 365.894531 642.53125 C 366.863281 643.496094 367.992188 644.625 367.992188 646.078125 C 368.152344 646.882812 367.507812 647.367188 367.023438 647.851562 L 365.734375 649.140625 C 351.382812 663.492188 337.191406 678.007812 323.96875 693.488281 C 339.289062 680.101562 353.960938 666.074219 368.3125 651.722656 C 368.3125 651.722656 369.605469 650.429688 369.605469 650.429688 C 372.667969 647.691406 371.539062 643.175781 368.796875 640.757812 Z M 662.125 186.976562 C 722.4375 247.285156 746.949219 284.214844 745.011719 291.148438 L 745.011719 291.308594 L 740.015625 296.308594 L 739.53125 295.019531 C 736.789062 287.4375 730.015625 276.957031 718.890625 262.765625 C 703.570312 243.09375 681.15625 218.421875 655.835938 193.101562 C 630.519531 167.785156 605.847656 145.371094 586.171875 130.050781 C 571.984375 118.925781 561.5 112.3125 553.921875 109.410156 L 552.632812 108.925781 L 557.632812 103.925781 L 557.792969 103.925781 C 564.886719 102.152344 601.816406 126.664062 662.125 186.976562 Z M 572.628906 112.152344 C 569.886719 110.378906 567.144531 108.765625 564.402344 107.476562 L 561.015625 110.863281 C 563.757812 112.3125 566.175781 113.765625 569.242188 115.699219 Z M 599.234375 131.824219 C 596.332031 129.40625 593.269531 126.988281 590.367188 124.730469 C 586.820312 121.988281 583.59375 119.730469 580.207031 117.152344 L 576.660156 120.699219 C 581.496094 124.246094 586.335938 127.953125 591.011719 131.664062 C 592.785156 130.375 595.527344 130.535156 599.234375 131.824219 Z M 713.890625 253.734375 C 722.4375 264.21875 731.949219 276.3125 738.238281 287.921875 L 741.625 284.535156 C 735.335938 272.28125 726.144531 260.992188 717.597656 250.027344 Z M 698.085938 235.191406 C 701.632812 239.222656 705.019531 243.09375 708.246094 246.800781 L 711.953125 243.09375 C 709.859375 240.675781 707.761719 238.09375 705.34375 235.515625 C 703.085938 232.933594 700.828125 230.355469 698.410156 227.613281 C 699.375 230.835938 699.375 233.257812 698.410156 234.867188 Z M 366.863281 615.277344 C 366.21875 614.632812 365.25 614.632812 364.605469 615.277344 L 371.539062 624.46875 L 362.347656 617.535156 L 362.023438 617.855469 C 360.25 619.632812 360.089844 622.695312 361.703125 624.628906 L 367.667969 631.402344 C 369.605469 633.5 372.828125 633.660156 374.925781 631.5625 L 377.988281 628.5 C 378.632812 627.855469 378.632812 626.886719 377.988281 626.242188 Z M 665.191406 183.910156 C 642.9375 161.980469 620.039062 140.371094 595.203125 121.183594 C 589.882812 116.988281 583.269531 112.472656 577.625 108.765625 C 576.335938 107.957031 570.691406 104.734375 569.082031 103.925781 C 570.855469 105.054688 575.53125 107.796875 577.464844 108.925781 C 582.949219 112.796875 589.558594 117.472656 594.71875 121.664062 C 619.230469 141.179688 641.96875 162.785156 664.0625 184.71875 C 687.925781 208.746094 711.308594 233.417969 731.949219 260.1875 C 736.628906 266.476562 741.144531 272.925781 745.011719 279.699219 C 741.304688 272.925781 736.949219 266.3125 732.273438 259.863281 C 712.277344 232.773438 688.894531 207.9375 665.191406 183.910156 Z M 790.003906 246.15625 L 790.003906 246.320312 L 777.75 258.574219 L 777.265625 257.285156 C 774.523438 249.703125 767.75 239.222656 756.625 225.03125 C 741.304688 205.519531 718.890625 180.847656 693.570312 155.53125 C 668.253906 130.210938 643.582031 107.796875 623.90625 92.476562 C 609.71875 81.351562 599.234375 74.738281 591.65625 71.835938 L 590.527344 71.351562 L 602.785156 59.097656 L 602.945312 59.097656 C 609.878906 57.164062 646.808594 81.671875 707.117188 141.984375 C 767.429688 202.296875 791.9375 239.222656 790.003906 246.15625 Z M 606.816406 77.964844 L 617.617188 67.160156 C 614.878906 65.386719 612.136719 63.773438 609.394531 62.484375 L 598.589844 73.289062 C 601.492188 74.578125 603.910156 76.03125 606.816406 77.964844 Z M 648.417969 90.21875 C 644.066406 86.671875 639.710938 83.125 635.355469 79.738281 C 631.808594 76.996094 628.585938 74.738281 625.199219 72.160156 L 614.234375 83.125 C 619.394531 86.835938 624.554688 90.703125 629.550781 94.734375 C 631.972656 87.480469 640.519531 87.640625 648.417969 90.21875 Z M 745.820312 209.230469 L 756.785156 198.261719 C 754.6875 195.84375 752.59375 193.265625 750.171875 190.683594 C 746.949219 186.976562 743.238281 182.78125 739.691406 178.914062 C 742.917969 188.75 741.304688 193.75 734.691406 196.8125 C 735.015625 197.132812 735.175781 197.457031 735.5 197.78125 C 739.207031 201.488281 742.59375 205.519531 745.820312 209.230469 Z M 786.617188 239.546875 C 780.328125 227.289062 771.136719 216 762.589844 205.035156 L 751.625 216 C 752.753906 217.292969 753.882812 218.742188 754.851562 220.035156 C 762.269531 229.386719 770.492188 240.191406 775.972656 250.1875 Z M 691.796875 157.789062 C 673.253906 139.402344 654.222656 121.503906 634.066406 104.734375 C 622.132812 94.734375 609.554688 85.058594 595.847656 77.480469 C 609.394531 85.222656 621.648438 95.21875 633.582031 105.378906 C 653.417969 122.3125 672.445312 140.210938 690.832031 158.59375 C 717.277344 185.523438 743.722656 212.9375 765.652344 243.738281 C 767.265625 245.996094 770.167969 251.15625 771.78125 253.734375 C 770.167969 251.15625 767.589844 246.15625 765.816406 243.578125 C 744.851562 212.292969 718.242188 184.878906 691.796875 157.789062 Z M 680.671875 168.429688 C 740.980469 228.742188 765.492188 265.667969 763.558594 272.605469 L 763.558594 272.765625 L 758.558594 277.765625 L 758.234375 276.472656 C 755.496094 268.894531 748.722656 258.414062 737.59375 244.222656 C 722.277344 224.546875 699.859375 199.875 674.542969 174.558594 C 649.226562 149.242188 624.554688 126.824219 604.878906 111.507812 C 590.6875 100.378906 580.207031 93.769531 572.628906 90.867188 L 571.335938 90.382812 L 576.335938 85.382812 L 576.5 85.382812 C 583.433594 83.609375 620.359375 108.121094 680.671875 168.429688 Z M 591.332031 93.605469 C 591.171875 93.605469 591.171875 93.445312 591.332031 93.605469 C 588.59375 91.832031 585.851562 90.21875 583.109375 88.929688 L 579.722656 92.316406 C 582.464844 93.769531 584.882812 95.21875 587.949219 97.15625 Z M 617.941406 113.28125 C 614.878906 110.863281 611.8125 108.441406 608.910156 106.023438 C 605.363281 103.28125 602.136719 101.023438 598.75 98.445312 L 595.203125 101.992188 C 600.203125 105.539062 605.039062 109.25 609.71875 113.117188 C 611.328125 111.828125 613.910156 111.828125 617.941406 113.28125 Z M 732.433594 235.03125 C 740.980469 245.511719 750.496094 257.605469 756.785156 269.21875 L 760.171875 265.832031 C 753.882812 253.574219 744.691406 242.285156 736.144531 231.320312 Z M 716.46875 216.484375 C 720.019531 220.515625 723.40625 224.546875 726.789062 228.257812 L 730.5 224.546875 C 728.402344 222.128906 726.308594 219.550781 723.886719 216.96875 C 721.628906 214.390625 719.371094 211.808594 716.792969 209.066406 C 718.082031 212.617188 717.921875 215.195312 716.46875 216.484375 Z M 672.125 176.332031 C 649.710938 154.238281 626.648438 132.632812 601.816406 113.28125 C 593.429688 106.992188 584.882812 100.703125 575.53125 96.027344 C 584.882812 100.863281 593.269531 107.3125 601.492188 113.765625 C 626.003906 133.4375 648.902344 155.046875 671.15625 177.300781 C 693.410156 199.554688 715.019531 222.453125 734.691406 247.125 C 741.144531 255.347656 747.59375 263.734375 752.59375 272.925781 C 747.753906 263.574219 741.625 255.027344 735.175781 246.640625 C 715.988281 221.808594 694.378906 198.746094 672.125 176.332031 Z M 273.171875 513.523438 C 274.300781 516.585938 269.785156 518.84375 266.882812 517.714844 C 233.019531 503.6875 195.929688 507.878906 165.289062 529.972656 C 159.644531 534.003906 151.90625 533.359375 146.90625 528.359375 L 199.960938 475.304688 C 200.445312 474.820312 201.410156 473.855469 203.507812 474.5 C 204.636719 474.820312 205.605469 475.464844 206.570312 476.273438 C 211.25 481.109375 230.921875 500.785156 242.046875 500.785156 C 262.851562 500.785156 338.160156 447.570312 338.160156 447.570312 C 338.160156 447.570312 321.066406 461.113281 279.460938 495.785156 C 275.75 499.011719 271.074219 508.363281 273.171875 513.523438 Z M 214.472656 491.269531 C 212.539062 488.691406 210.601562 486.109375 208.507812 483.691406 C 207.378906 482.402344 206.089844 480.789062 204.152344 480.304688 C 202.21875 479.820312 199.800781 480.304688 198.347656 481.917969 C 193.671875 486.269531 189.15625 490.785156 184.640625 495.460938 C 175.609375 504.652344 166.742188 514.007812 158.515625 524.003906 C 173.351562 511.75 187.222656 498.042969 200.445312 484.175781 C 201.574219 482.882812 203.832031 482.722656 205.121094 483.851562 L 206.894531 485.304688 C 209.472656 487.398438 211.894531 489.496094 214.472656 491.269531 Z M 142.230469 697.359375 C 128.683594 681.554688 120.296875 663.007812 117.074219 642.207031 C 115.785156 634.144531 112.558594 625.4375 107.238281 616.566406 L 92.882812 597.859375 L 90.789062 595.441406 C 89.175781 593.667969 88.53125 591.734375 88.691406 589.796875 C 89.015625 585.445312 93.367188 581.898438 93.53125 581.734375 L 130.621094 544.644531 C 134.003906 541.257812 139.648438 541.257812 143.035156 544.808594 C 144.648438 546.421875 144.808594 548.839844 143.359375 550.453125 C 88.207031 613.34375 142.230469 697.359375 142.230469 697.359375 Z M 132.554688 549 C 121.589844 558.835938 110.785156 569.15625 100.140625 579.316406 C 100.140625 579.316406 96.917969 582.378906 96.917969 582.378906 C 95.949219 583.507812 94.496094 584.636719 93.53125 585.929688 C 90.949219 589.796875 92.402344 595.28125 96.109375 597.539062 C 99.171875 599.636719 104.335938 604.3125 99.335938 597.539062 C 98.527344 596.410156 97.398438 595.121094 96.753906 594.152344 C 95.140625 591.570312 95.464844 588.347656 97.5625 586.089844 C 98.527344 585.121094 101.109375 582.378906 102.238281 581.25 C 112.398438 570.929688 122.878906 559.964844 132.554688 549 Z M 91.917969 605.277344 C 90.144531 603.34375 87.078125 603.183594 85.304688 604.957031 L 84.984375 605.277344 L 92.078125 614.632812 L 82.726562 607.535156 L 82.402344 607.859375 C 81.757812 608.503906 81.757812 609.472656 82.402344 609.957031 L 92.722656 620.277344 C 93.367188 620.921875 94.335938 620.921875 94.820312 620.277344 L 97.238281 617.855469 C 98.851562 616.246094 99.011719 613.503906 97.398438 611.566406 Z M 242.855469 756.21875 L 236.242188 750.410156 C 234.308594 748.800781 231.566406 748.800781 229.953125 750.410156 L 236.726562 759.28125 L 227.859375 752.507812 L 227.535156 752.832031 C 226.890625 753.476562 226.890625 754.441406 227.535156 755.089844 L 238.339844 765.890625 C 238.984375 766.539062 239.953125 766.539062 240.597656 765.890625 L 243.339844 763.152344 C 245.113281 761.214844 244.953125 758.152344 242.855469 756.21875 Z M 216.730469 473.53125 C 214.632812 475.628906 214.796875 478.851562 216.730469 480.625 L 223.34375 486.433594 C 225.277344 488.042969 228.179688 487.882812 229.953125 486.109375 L 232.535156 483.527344 C 233.179688 482.882812 233.179688 481.917969 232.535156 481.273438 L 221.890625 470.628906 C 221.246094 469.984375 220.277344 469.984375 219.632812 470.628906 L 226.730469 479.980469 L 217.375 472.886719 Z M 396.210938 502.558594 C 396.855469 503.523438 397.664062 504.492188 398.308594 505.460938 C 373.957031 533.84375 354.929688 556.578125 353.316406 558.351562 C 352.511719 559.644531 346.867188 568.511719 335.902344 569.800781 C 332.515625 570.125 329.128906 569.800781 325.582031 568.671875 C 322.515625 567.707031 319.773438 570.769531 321.226562 573.671875 C 339.609375 610.921875 334.128906 657.042969 304.9375 689.132812 C 303.808594 690.421875 303.808594 692.199219 304.9375 693.328125 L 316.871094 705.257812 L 303.972656 696.230469 C 301.875 694.777344 299.132812 694.9375 297.359375 696.550781 C 258.011719 731.707031 198.023438 731.382812 159 695.746094 C 157.710938 694.617188 155.9375 694.617188 154.808594 695.746094 L 145.777344 704.777344 L 152.226562 694.777344 C 153.519531 692.84375 153.355469 690.101562 151.742188 688.328125 C 116.429688 648.980469 116.75 588.832031 152.390625 549.804688 C 153.519531 548.515625 153.519531 546.742188 152.390625 545.613281 L 141.101562 534.324219 L 153.519531 542.871094 C 155.613281 544.324219 158.355469 544.164062 160.128906 542.550781 C 191.574219 514.492188 236.082031 509.007812 272.6875 526.101562 C 276.234375 527.714844 280.105469 524.648438 279.136719 520.78125 C 278.492188 517.878906 278.171875 514.972656 278.492188 512.234375 C 279.621094 501.269531 288.492188 495.625 289.941406 494.816406 C 291.878906 493.203125 317.195312 471.917969 347.832031 445.632812 C 348.640625 446.441406 349.445312 447.40625 350.089844 448.214844 C 318.324219 475.464844 292.359375 497.234375 292.039062 497.71875 L 291.714844 497.882812 C 291.554688 497.882812 283.007812 502.878906 281.878906 512.71875 C 280.910156 521.425781 285.910156 531.261719 296.714844 541.90625 C 298.328125 543.355469 299.941406 544.808594 301.390625 546.257812 C 301.390625 546.257812 301.554688 546.421875 301.714844 546.421875 C 301.875 546.421875 301.875 546.582031 301.875 546.742188 C 303.328125 548.355469 304.777344 549.804688 306.230469 551.417969 C 317.035156 562.222656 326.871094 567.222656 335.417969 566.253906 C 345.253906 565.289062 350.253906 556.578125 350.253906 556.417969 L 350.414062 556.09375 C 350.898438 555.773438 370.734375 532.066406 396.210938 502.558594 Z M 303.648438 553.675781 C 302.199219 552.226562 300.585938 550.453125 299.132812 548.839844 C 297.359375 547.226562 295.746094 545.773438 294.296875 544.324219 C 254.464844 509.492188 193.511719 511.589844 156.257812 550.613281 C 120.296875 588.347656 119.652344 648.175781 154.648438 686.554688 C 193.1875 728.964844 259.140625 730.09375 299.132812 689.941406 C 336.546875 652.6875 337.996094 592.863281 303.648438 553.675781 Z M 293.328125 684.132812 C 282.6875 693.808594 270.109375 700.742188 256.5625 704.9375 C 269.785156 700.421875 281.878906 692.679688 291.230469 682.039062 C 265.59375 705.421875 227.375 712.839844 195.121094 699.9375 C 184.480469 695.746094 174.480469 689.617188 165.773438 682.039062 C 173.515625 690.746094 183.1875 697.839844 193.992188 702.519531 C 196.089844 703.484375 198.1875 704.292969 200.28125 705.097656 C 198.1875 704.453125 195.929688 703.648438 193.832031 702.839844 C 182.867188 698.488281 172.546875 692.199219 163.515625 684.296875 C 171.578125 693.328125 181.578125 700.582031 192.703125 705.421875 C 194.800781 706.386719 196.894531 707.195312 198.992188 708 C 196.894531 707.355469 194.800781 706.550781 192.542969 705.742188 C 181.09375 701.226562 170.609375 694.777344 161.257812 686.554688 C 169.480469 695.746094 179.964844 703.324219 191.414062 708.324219 C 225.921875 723.964844 269.945312 715.097656 295.101562 686.554688 C 284.296875 696.550781 271.234375 703.808594 257.367188 708 C 271.398438 703 283.816406 695.101562 293.328125 684.132812 Z M 287.199219 560.773438 C 319.613281 593.183594 319.613281 645.753906 287.199219 678.007812 C 254.789062 710.417969 202.21875 710.417969 169.964844 678.007812 C 137.714844 645.59375 137.554688 593.023438 169.964844 560.773438 C 202.21875 528.359375 254.789062 528.359375 287.199219 560.773438 Z M 283.167969 564.804688 C 253.015625 534.648438 203.992188 534.648438 173.835938 564.804688 C 143.679688 594.957031 143.679688 643.980469 173.835938 674.136719 C 203.992188 704.292969 253.015625 704.292969 283.167969 674.136719 C 313.324219 643.820312 313.324219 594.957031 283.167969 564.804688 Z M 163.675781 554.484375 C 174.320312 544.808594 186.898438 537.875 200.445312 533.679688 C 187.222656 538.195312 175.125 545.9375 165.773438 556.578125 C 191.414062 533.195312 229.632812 525.777344 261.882812 538.679688 C 272.527344 542.871094 282.523438 549 291.230469 556.578125 C 283.492188 547.871094 273.816406 540.777344 263.011719 536.097656 C 260.914062 535.132812 258.820312 534.324219 256.722656 533.519531 C 258.820312 534.164062 261.078125 534.96875 263.171875 535.777344 C 274.140625 540.132812 284.460938 546.421875 293.488281 554.320312 C 285.425781 545.292969 275.429688 538.035156 264.300781 533.195312 C 262.207031 532.230469 260.109375 531.421875 258.011719 530.617188 C 260.109375 531.261719 262.207031 532.066406 264.464844 532.875 C 275.914062 537.390625 286.394531 543.839844 295.746094 552.0625 C 287.523438 542.871094 277.042969 535.292969 265.59375 530.292969 C 231.082031 514.652344 187.058594 523.519531 161.902344 552.0625 C 172.707031 542.066406 185.769531 534.808594 199.636719 530.617188 C 185.769531 535.617188 173.351562 543.679688 163.675781 554.484375 Z M 268.496094 747.507812 C 264.625 751.21875 259.304688 758.472656 253.820312 753.152344 C 253.175781 752.347656 234.148438 737.832031 232.695312 736.703125 C 227.050781 733.316406 221.085938 730.578125 214.796875 728.640625 C 208.667969 726.707031 202.054688 726.382812 195.929688 724.773438 C 183.671875 721.546875 171.738281 717.03125 160.453125 711.066406 C 170.289062 719.449219 182.382812 725.417969 195.121094 728.15625 C 201.25 729.769531 207.699219 730.09375 213.828125 732.027344 C 219.796875 733.800781 225.4375 736.542969 230.921875 739.769531 C 230.761719 739.605469 252.207031 756.054688 251.5625 755.894531 C 256.722656 761.054688 263.980469 757.992188 268.011719 752.992188 C 268.65625 752.347656 270.429688 750.574219 271.074219 749.929688 C 273.976562 746.863281 289.457031 732.027344 291.714844 728.964844 C 295.425781 724.609375 299.617188 719.773438 303.164062 715.417969 C 297.199219 720.417969 290.910156 725.578125 285.265625 730.898438 C 285.265625 730.738281 268.496094 747.507812 268.496094 747.507812 Z M 590.203125 470.46875 C 589.558594 469.824219 588.59375 469.824219 587.949219 470.46875 L 577.304688 481.109375 C 576.660156 481.753906 576.660156 482.722656 577.304688 483.367188 L 579.882812 485.949219 C 581.660156 487.722656 584.5625 487.882812 586.496094 486.269531 L 593.109375 480.464844 C 595.203125 478.691406 595.203125 475.464844 593.109375 473.371094 L 592.300781 472.5625 L 582.949219 479.660156 Z M 640.195312 678.007812 C 607.78125 710.417969 555.210938 710.417969 522.960938 678.007812 C 490.546875 645.59375 490.546875 593.023438 522.960938 560.773438 C 555.375 528.359375 607.945312 528.359375 640.195312 560.773438 C 672.609375 593.183594 672.609375 645.59375 640.195312 678.007812 Z M 636.164062 564.804688 C 606.007812 534.648438 556.984375 534.648438 526.832031 564.804688 C 496.675781 594.957031 496.675781 643.980469 526.832031 674.136719 C 556.984375 704.292969 606.007812 704.292969 636.164062 674.136719 C 666.320312 643.820312 666.320312 594.957031 636.164062 564.804688 Z M 552.148438 530.9375 C 550.050781 531.746094 547.957031 532.550781 545.859375 533.519531 C 534.730469 538.355469 524.734375 545.613281 516.671875 554.644531 C 525.703125 546.582031 535.859375 540.292969 546.988281 536.097656 C 549.085938 535.292969 551.179688 534.488281 553.4375 533.84375 C 551.34375 534.648438 549.246094 535.453125 547.148438 536.421875 C 536.34375 541.097656 526.667969 548.195312 518.929688 556.902344 C 527.636719 549.160156 537.636719 543.035156 548.277344 539.003906 C 580.53125 526.101562 618.746094 533.679688 644.386719 556.902344 C 635.035156 546.257812 622.941406 538.519531 609.71875 534.003906 C 623.261719 538.195312 635.839844 545.128906 646.484375 554.804688 C 636.96875 543.839844 624.390625 535.9375 610.847656 531.261719 C 624.714844 535.617188 637.777344 542.710938 648.582031 552.710938 C 623.425781 524.167969 579.402344 515.296875 544.890625 530.9375 C 533.28125 535.9375 522.960938 543.515625 514.734375 552.710938 C 523.929688 544.484375 534.570312 537.875 546.019531 533.519531 C 547.957031 532.390625 550.050781 531.585938 552.148438 530.9375 Z M 610.847656 707.839844 C 612.941406 707.03125 615.039062 706.226562 617.136719 705.257812 C 628.261719 700.421875 638.261719 693.164062 646.324219 684.132812 C 637.292969 692.199219 627.132812 698.488281 616.007812 702.679688 C 613.910156 703.484375 611.8125 704.292969 609.554688 704.9375 C 611.652344 704.128906 613.75 703.324219 615.84375 702.355469 C 626.648438 697.679688 636.324219 690.585938 644.066406 681.875 C 635.355469 689.617188 625.359375 695.746094 614.714844 699.777344 C 582.464844 712.675781 544.246094 705.097656 518.605469 681.875 C 527.960938 692.519531 540.054688 700.261719 553.277344 704.777344 C 539.730469 700.582031 527.152344 693.648438 516.511719 683.972656 C 526.023438 694.9375 538.601562 702.839844 552.148438 707.515625 C 538.28125 703.164062 525.21875 696.066406 514.414062 686.070312 C 539.570312 714.613281 583.59375 723.480469 618.101562 707.839844 C 629.714844 702.839844 640.035156 695.261719 648.257812 686.070312 C 639.066406 694.292969 628.421875 700.90625 616.972656 705.257812 C 615.039062 706.386719 612.941406 707.195312 610.847656 707.839844 Z M 595.203125 728.640625 C 588.914062 730.578125 582.949219 733.316406 577.304688 736.703125 C 575.851562 737.832031 556.664062 752.347656 556.179688 753.152344 C 550.695312 758.472656 545.214844 751.21875 541.503906 747.507812 C 541.503906 747.507812 524.894531 730.738281 524.894531 730.738281 C 519.25 725.417969 512.800781 720.257812 506.996094 715.257812 C 510.542969 719.609375 514.734375 724.449219 518.445312 728.804688 C 520.703125 731.867188 536.023438 746.703125 539.085938 749.765625 C 539.730469 750.410156 541.503906 752.183594 542.148438 752.832031 C 546.179688 757.667969 553.4375 760.894531 558.597656 755.734375 C 558.113281 755.894531 579.5625 739.605469 579.238281 739.605469 C 584.722656 736.382812 590.367188 733.640625 596.332031 731.867188 C 602.460938 729.933594 608.910156 729.609375 615.039062 727.996094 C 627.777344 725.253906 639.710938 719.289062 649.710938 710.902344 C 638.421875 716.871094 626.648438 721.386719 614.234375 724.609375 C 607.945312 726.382812 601.492188 726.707031 595.203125 728.640625 Z M 582.304688 752.507812 L 573.433594 759.28125 L 580.207031 750.410156 C 578.433594 748.800781 575.691406 748.636719 573.917969 750.410156 L 567.304688 756.21875 C 565.210938 757.992188 565.046875 761.214844 566.984375 762.988281 L 569.726562 765.730469 C 570.371094 766.375 571.335938 766.375 571.984375 765.730469 L 582.789062 754.925781 C 583.433594 754.28125 583.433594 753.3125 582.789062 752.667969 Z M 442.492188 631.402344 L 448.460938 624.628906 C 450.234375 622.695312 450.070312 619.792969 448.136719 617.855469 L 447.8125 617.535156 L 438.621094 624.46875 L 445.554688 615.277344 C 444.910156 614.632812 443.945312 614.632812 443.296875 615.277344 L 432.332031 626.242188 C 431.6875 626.886719 431.6875 627.855469 432.332031 628.5 L 435.398438 631.5625 C 437.332031 633.660156 440.558594 633.5 442.492188 631.402344 Z M 536.828125 513.523438 C 538.925781 508.363281 534.25 499.011719 530.699219 496.105469 C 489.097656 461.4375 472.003906 447.890625 472.003906 447.890625 C 472.003906 447.890625 547.308594 501.105469 568.113281 501.105469 C 579.402344 501.105469 599.074219 481.433594 603.589844 476.59375 C 604.394531 475.789062 605.363281 474.984375 606.652344 474.820312 C 608.75 474.335938 609.71875 475.144531 610.199219 475.628906 L 663.253906 528.679688 C 658.417969 533.519531 650.515625 534.324219 644.871094 530.292969 C 614.394531 508.203125 577.304688 504.007812 543.277344 518.039062 C 540.214844 518.84375 535.699219 516.425781 536.828125 513.523438 Z M 595.527344 491.269531 C 598.105469 489.335938 600.6875 487.398438 603.105469 485.304688 L 604.878906 483.851562 C 606.167969 482.722656 608.425781 482.882812 609.554688 484.175781 C 622.941406 498.203125 636.648438 511.75 651.484375 524.003906 C 643.257812 514.007812 634.390625 504.652344 625.359375 495.460938 C 620.84375 490.945312 616.167969 486.433594 611.652344 481.917969 C 610.199219 480.464844 607.78125 479.820312 605.847656 480.304688 C 603.910156 480.625 602.621094 482.238281 601.492188 483.691406 C 599.398438 486.269531 597.460938 488.691406 595.527344 491.269531 Z M 444.105469 648.980469 L 442.816406 647.691406 C 442.332031 647.207031 441.6875 646.882812 441.847656 645.917969 C 442.007812 644.464844 442.976562 643.335938 443.945312 642.367188 C 452.328125 633.5 466.359375 619.148438 466.679688 606.246094 C 466.035156 611.085938 463.457031 615.117188 460.714844 618.984375 C 454.910156 626.886719 448.136719 633.984375 441.042969 640.59375 C 438.460938 643.011719 437.171875 647.527344 440.394531 649.949219 C 440.394531 649.949219 441.6875 651.238281 441.6875 651.238281 C 456.039062 665.589844 470.550781 679.78125 486.03125 693.003906 C 472.648438 678.007812 458.617188 663.332031 444.105469 648.980469 Z M 364.28125 217.613281 L 366.539062 219.871094 C 345.09375 198.425781 159.324219 384.195312 180.933594 405.640625 L 178.675781 403.382812 C 173.03125 397.738281 181.738281 380.648438 198.1875 358.875 L 129.8125 290.503906 C 121.75 282.441406 121.265625 269.378906 128.683594 260.832031 C 157.226562 227.613281 188.832031 196.007812 222.535156 166.980469 C 231.082031 159.5625 244.144531 160.046875 252.207031 168.109375 L 320.742188 236.644531 C 341.867188 220.515625 358.636719 212.132812 364.28125 217.613281 Z M 317.839844 238.738281 L 249.628906 170.527344 C 242.855469 163.753906 231.890625 163.269531 224.632812 169.558594 C 190.929688 198.425781 159.484375 229.871094 131.101562 263.089844 C 124.8125 270.347656 125.296875 281.3125 132.070312 288.085938 L 200.121094 356.136719 C 229.308594 318.238281 279.945312 267.605469 317.839844 238.738281 Z M 91.109375 262.765625 C 79.984375 276.957031 73.371094 287.4375 70.46875 295.019531 L 69.984375 296.308594 L 64.988281 291.308594 L 64.988281 291.148438 C 63.050781 284.214844 87.5625 247.285156 147.875 186.976562 C 208.183594 126.664062 245.113281 102.152344 252.046875 104.089844 L 252.207031 104.089844 L 257.207031 109.085938 L 255.917969 109.570312 C 248.335938 112.3125 237.855469 119.085938 223.664062 130.210938 C 203.992188 145.53125 179.320312 167.945312 154 193.265625 C 128.683594 218.582031 106.429688 243.253906 91.109375 262.765625 Z M 237.371094 112.152344 L 240.917969 115.699219 C 243.824219 113.765625 246.242188 112.3125 249.144531 110.863281 L 245.757812 107.476562 C 242.855469 108.765625 240.113281 110.378906 237.371094 112.152344 Z M 210.765625 131.824219 C 214.472656 130.695312 217.375 130.375 218.988281 131.664062 C 223.664062 127.953125 228.503906 124.246094 233.339844 120.699219 L 229.792969 117.152344 C 226.246094 119.570312 223.019531 121.988281 219.632812 124.730469 C 216.730469 126.988281 213.667969 129.40625 210.765625 131.824219 Z M 104.816406 235.515625 C 102.558594 238.09375 100.300781 240.675781 98.207031 243.09375 L 101.914062 246.800781 C 105.140625 243.09375 108.527344 239.222656 112.074219 235.191406 L 111.914062 235.03125 C 110.945312 233.417969 110.945312 231 111.914062 227.773438 C 109.171875 230.355469 106.914062 233.09375 104.816406 235.515625 Z M 71.761719 287.921875 C 78.050781 276.3125 87.5625 264.21875 96.109375 253.734375 L 92.5625 250.1875 C 83.855469 260.992188 74.824219 272.441406 68.535156 284.699219 Z M 657.933594 694.617188 L 664.382812 704.613281 L 655.351562 695.582031 C 654.222656 694.453125 652.289062 694.453125 651.160156 695.582031 C 612.136719 731.222656 552.148438 731.542969 512.800781 696.390625 C 511.027344 694.777344 508.125 694.617188 506.191406 696.066406 L 493.289062 705.097656 L 505.222656 693.164062 C 506.351562 692.035156 506.351562 690.101562 505.222656 688.972656 C 475.871094 656.882812 470.550781 610.761719 488.933594 573.511719 C 490.386719 570.609375 487.644531 567.542969 484.582031 568.511719 C 481.03125 569.640625 477.484375 569.964844 474.261719 569.640625 C 463.292969 568.511719 457.652344 559.644531 456.84375 558.191406 C 453.941406 554.804688 391.695312 480.625 346.542969 430.636719 C 300.425781 379.679688 264.945312 339.6875 264.300781 339.042969 C 264.300781 339.042969 303.003906 377.261719 349.125 428.21875 C 395.242188 479.175781 459.101562 555.128906 459.746094 555.933594 L 459.910156 556.257812 C 459.910156 556.417969 464.90625 564.964844 474.746094 566.09375 C 483.453125 567.0625 493.289062 562.0625 503.933594 551.257812 C 505.382812 549.644531 506.835938 548.03125 508.285156 546.582031 C 508.285156 546.582031 508.445312 546.421875 508.445312 546.257812 C 508.445312 546.257812 508.609375 546.097656 508.769531 546.097656 C 510.382812 544.644531 511.832031 543.195312 513.445312 541.742188 C 524.25 530.9375 529.25 521.101562 528.28125 512.554688 C 527.3125 502.71875 518.605469 497.71875 518.445312 497.71875 L 518.121094 497.558594 C 517.316406 496.914062 441.363281 433.214844 390.40625 386.933594 C 339.449219 340.816406 301.390625 302.273438 301.390625 302.273438 C 302.035156 302.921875 341.867188 338.234375 392.824219 384.355469 C 442.816406 429.667969 516.992188 491.753906 520.378906 494.65625 C 521.671875 495.460938 530.539062 501.105469 531.828125 512.070312 C 532.152344 514.8125 531.992188 517.714844 531.183594 520.617188 C 530.21875 524.488281 534.085938 527.714844 537.636719 525.941406 C 574.242188 508.847656 618.746094 514.328125 650.191406 542.386719 C 651.96875 544 654.707031 544.164062 656.804688 542.710938 L 669.222656 534.164062 L 657.933594 545.453125 C 656.804688 546.582031 656.804688 548.515625 657.933594 549.644531 C 693.570312 588.667969 693.894531 648.820312 658.578125 688.164062 C 656.804688 689.941406 656.644531 692.679688 657.933594 694.617188 Z M 655.351562 686.554688 C 690.347656 648.011719 689.703125 588.1875 653.742188 550.613281 C 616.488281 511.589844 555.535156 509.492188 515.703125 544.324219 C 514.253906 545.773438 512.480469 547.386719 510.867188 548.839844 C 509.253906 550.613281 507.800781 552.226562 506.351562 553.675781 C 472.003906 592.863281 473.617188 652.6875 510.867188 689.941406 C 551.019531 730.09375 616.8125 728.804688 655.351562 686.554688 Z M 138.84375 177.300781 C 161.097656 155.046875 183.996094 133.4375 208.667969 113.765625 C 216.890625 107.3125 225.277344 100.863281 234.628906 96.027344 C 225.277344 100.703125 216.730469 106.992188 208.34375 113.28125 C 183.351562 132.632812 160.289062 154.238281 138.035156 176.332031 C 115.785156 198.746094 94.175781 221.808594 74.824219 246.640625 C 68.535156 255.027344 62.246094 263.574219 57.40625 272.925781 C 62.40625 263.734375 68.855469 255.347656 75.308594 247.125 C 94.980469 222.453125 116.589844 199.554688 138.84375 177.300781 Z M 104.011719 254.058594 C 138.035156 214.390625 175.125 177.460938 214.632812 143.4375 C 223.988281 135.535156 233.984375 127.632812 243.984375 120.699219 C 246.242188 119.246094 250.273438 116.828125 252.367188 115.699219 C 250.757812 116.503906 245.113281 119.890625 243.824219 120.535156 C 233.5 127.308594 223.34375 134.890625 213.988281 142.789062 C 173.996094 176.332031 136.746094 213.582031 103.207031 253.574219 C 95.789062 262.445312 88.371094 272.121094 82.082031 281.796875 C 80.304688 284.375 77.726562 289.214844 76.113281 291.953125 C 77.726562 289.375 80.628906 284.214844 82.242188 281.957031 C 89.015625 272.28125 96.59375 262.929688 104.011719 254.058594 Z M 727.273438 607.535156 L 717.921875 614.632812 L 725.015625 605.277344 L 724.695312 604.957031 C 722.757812 603.023438 719.695312 603.183594 718.082031 605.277344 L 712.4375 611.730469 C 710.824219 613.503906 710.824219 616.246094 712.601562 618.019531 L 715.019531 620.4375 C 715.664062 621.082031 716.632812 621.082031 717.113281 620.4375 L 727.4375 610.117188 C 728.082031 609.472656 728.082031 608.503906 727.4375 608.019531 Z M 72.40625 244.222656 C 61.277344 258.414062 54.667969 268.894531 51.765625 276.472656 L 51.28125 277.765625 L 46.28125 272.765625 L 46.28125 272.601562 C 44.347656 265.667969 68.855469 228.742188 129.167969 168.429688 C 189.476562 108.121094 226.40625 83.609375 233.339844 85.542969 L 233.5 85.542969 L 238.5 90.542969 L 237.210938 91.027344 C 229.632812 93.769531 219.148438 100.539062 204.960938 111.667969 C 185.285156 126.988281 160.613281 149.402344 135.296875 174.71875 C 109.976562 200.039062 87.886719 224.546875 72.40625 244.222656 Z M 218.828125 93.605469 L 222.375 97.15625 C 225.277344 95.21875 227.695312 93.769531 230.597656 92.316406 L 227.210938 88.929688 C 224.148438 90.21875 221.570312 91.832031 218.828125 93.605469 C 218.828125 93.445312 218.828125 93.605469 218.828125 93.605469 Z M 192.058594 113.28125 C 196.089844 111.828125 198.832031 111.828125 200.28125 113.117188 C 205.121094 109.25 209.957031 105.539062 214.796875 101.992188 L 211.25 98.445312 C 207.699219 100.863281 204.476562 103.28125 201.089844 106.023438 C 198.023438 108.441406 194.960938 110.863281 192.058594 113.28125 Z M 86.113281 216.96875 C 83.855469 219.550781 81.597656 222.128906 79.5 224.546875 L 83.210938 228.257812 C 86.433594 224.386719 89.820312 220.515625 93.53125 216.484375 C 92.238281 215.195312 92.078125 212.617188 93.207031 209.066406 C 90.789062 211.808594 88.371094 214.390625 86.113281 216.96875 Z M 53.214844 269.21875 C 59.503906 257.605469 69.019531 245.511719 77.566406 235.03125 L 74.015625 231.484375 C 65.308594 242.285156 56.277344 253.734375 49.988281 265.992188 Z M 173.835938 400.160156 L 81.433594 307.757812 L 81.433594 307.597656 C 79.5 300.664062 104.011719 263.734375 164.320312 203.421875 C 224.632812 143.113281 261.5625 118.601562 268.496094 120.535156 L 268.65625 120.535156 L 361.058594 212.9375 L 358.476562 212.617188 C 354.121094 212.132812 344.285156 214.875 322.03125 231.644531 L 321.386719 232.128906 L 252.851562 163.59375 C 244.789062 155.53125 231.566406 155.046875 222.859375 162.625 C 187.222656 193.265625 154 226.484375 124.007812 261.476562 C 116.589844 270.183594 116.914062 283.40625 125.136719 291.472656 L 193.511719 359.84375 L 193.027344 360.488281 C 175.933594 383.226562 172.867188 393.386719 173.515625 397.738281 Z M 253.820312 128.4375 L 341.707031 216.324219 C 344.929688 214.550781 347.996094 213.097656 350.574219 212.132812 L 262.207031 123.761719 C 259.140625 125.214844 256.402344 126.824219 253.820312 128.4375 Z M 226.566406 148.597656 C 231.246094 147.304688 234.792969 147.144531 236.566406 149.242188 C 236.566406 149.242188 243.660156 156.335938 243.660156 156.335938 C 250.433594 154.402344 315.582031 225.355469 321.550781 229.707031 C 325.582031 226.644531 329.773438 223.742188 333.804688 221.164062 L 246.242188 133.597656 C 242.695312 136.019531 239.46875 138.4375 236.082031 141.179688 C 232.855469 143.597656 229.792969 146.015625 226.566406 148.597656 Z M 121.105469 251.960938 C 118.847656 254.542969 116.589844 257.121094 114.492188 259.542969 L 119.652344 264.703125 C 120.136719 263.894531 120.460938 263.089844 121.105469 262.445312 C 123.523438 259.058594 126.585938 255.992188 129.328125 252.609375 C 127.394531 250.996094 127.394531 247.769531 128.523438 243.578125 C 125.941406 246.480469 123.523438 249.222656 121.105469 251.960938 Z M 173.191406 389.355469 C 177.382812 378.710938 184.316406 369.195312 191.089844 360.003906 L 123.847656 292.597656 C 119.167969 287.921875 116.589844 281.148438 117.074219 274.539062 L 109.011719 266.476562 C 100.300781 277.28125 91.273438 288.730469 84.984375 300.984375 Z M 108.847656 258.734375 C 142.875 219.066406 179.964844 182.136719 219.472656 148.113281 C 228.824219 140.210938 238.824219 132.308594 248.820312 125.375 C 251.078125 123.921875 255.109375 121.503906 257.207031 120.375 C 255.59375 121.183594 249.949219 124.570312 248.660156 125.214844 C 238.339844 131.988281 228.179688 139.566406 218.828125 147.46875 C 178.835938 181.007812 141.585938 218.257812 108.042969 258.25 C 100.625 267.121094 93.207031 276.796875 86.917969 286.472656 C 85.144531 289.050781 82.5625 293.890625 80.953125 296.632812 C 82.5625 294.050781 85.46875 288.890625 87.078125 286.632812 C 93.691406 276.957031 101.269531 267.605469 108.847656 258.734375 Z M 145.777344 184.71875 C 168.03125 162.785156 190.769531 141.179688 215.117188 121.664062 C 220.441406 117.472656 226.890625 112.636719 232.375 108.925781 C 234.308594 107.796875 238.984375 104.894531 240.757812 103.925781 C 239.308594 104.894531 233.664062 107.957031 232.210938 108.765625 C 226.566406 112.472656 219.957031 116.988281 214.632812 121.183594 C 189.800781 140.371094 167.0625 161.820312 144.648438 183.910156 C 120.945312 208.101562 97.5625 232.773438 77.242188 260.023438 C 72.566406 266.3125 68.375 272.925781 64.503906 279.859375 C 68.375 273.085938 72.890625 266.636719 77.566406 260.347656 C 98.691406 233.417969 121.910156 208.746094 145.777344 184.71875 Z M 496.835938 547.386719 L 512.480469 531.746094 C 513.285156 530.9375 512.316406 529.648438 511.351562 530.292969 C 460.230469 559.160156 420.398438 473.691406 274.785156 335.171875 L 462.488281 545.9375 C 471.519531 556.257812 487.324219 556.902344 496.835938 547.386719 Z M 176.417969 105.378906 C 188.347656 95.378906 200.605469 85.382812 214.152344 77.480469 C 200.445312 85.058594 187.867188 94.734375 175.933594 104.734375 C 155.777344 121.503906 136.746094 139.402344 118.203125 157.789062 C 91.757812 184.878906 65.308594 212.292969 44.183594 243.738281 C 42.410156 246.15625 39.832031 251.316406 38.21875 253.898438 C 39.832031 251.316406 42.734375 246.15625 44.347656 243.898438 C 66.117188 212.9375 92.722656 185.683594 119.167969 158.753906 C 137.554688 140.210938 156.582031 122.3125 176.417969 105.378906 Z M 235.113281 233.09375 C 246.402344 244.382812 246.402344 262.929688 235.113281 274.378906 C 223.828125 285.828125 205.28125 285.664062 193.832031 274.378906 C 182.542969 263.089844 182.542969 244.542969 193.832031 233.09375 C 205.28125 221.644531 223.828125 221.644531 235.113281 233.09375 Z M 194.960938 261.152344 C 196.25 263.734375 198.023438 265.992188 200.765625 267.441406 C 195.605469 258.898438 195.445312 248.414062 200.765625 239.867188 C 198.1875 241.320312 196.25 243.578125 194.960938 246.15625 C 195.765625 243.253906 197.058594 240.511719 198.671875 237.773438 C 195.445312 239.707031 193.1875 242.609375 191.898438 245.996094 C 192.863281 242.449219 194.316406 238.902344 196.574219 235.675781 C 184.480469 243.414062 184.480469 263.734375 196.574219 271.476562 C 194.316406 268.25 192.863281 264.863281 191.898438 261.316406 C 193.1875 264.703125 195.445312 267.605469 198.671875 269.539062 C 197.058594 266.636719 195.765625 264.058594 194.960938 261.152344 Z M 225.761719 264.863281 C 232.050781 258.574219 232.050781 248.574219 225.761719 242.285156 C 219.472656 235.996094 209.472656 235.996094 203.183594 242.285156 C 196.894531 248.574219 196.894531 258.574219 203.183594 264.863281 C 209.472656 271.152344 219.632812 271.152344 225.761719 264.863281 Z M 232.375 235.675781 C 234.628906 238.902344 236.082031 242.285156 237.050781 245.996094 C 235.757812 242.609375 233.5 239.707031 230.277344 237.773438 C 231.890625 240.511719 233.179688 243.253906 233.984375 246.15625 C 232.695312 243.578125 230.921875 241.320312 228.179688 239.867188 C 233.339844 248.414062 233.5 258.898438 228.179688 267.441406 C 230.761719 265.992188 232.695312 263.734375 233.984375 261.152344 C 233.179688 264.058594 231.890625 266.796875 230.277344 269.539062 C 233.5 267.605469 235.757812 264.703125 237.050781 261.316406 C 236.082031 264.863281 234.628906 268.410156 232.375 271.636719 C 244.46875 263.734375 244.46875 243.414062 232.375 235.675781 Z M 246.242188 177.621094 L 309.292969 240.675781 C 275.75 266.3125 232.535156 309.371094 206.734375 343.074219 L 143.84375 280.183594 C 137.390625 273.730469 136.425781 263.574219 141.90625 257.285156 C 166.417969 228.257812 193.832031 200.84375 223.503906 175.6875 C 229.632812 170.203125 239.628906 171.011719 246.242188 177.621094 Z M 237.535156 230.515625 C 224.792969 217.777344 204.152344 217.777344 191.414062 230.515625 C 178.675781 243.253906 178.675781 263.894531 191.414062 276.636719 C 204.152344 289.375 224.792969 289.375 237.535156 276.636719 C 250.273438 264.058594 250.273438 243.253906 237.535156 230.515625 Z M 126.75 165.207031 C 104.65625 187.621094 82.886719 210.519531 63.695312 235.515625 C 57.40625 243.898438 51.117188 252.445312 46.28125 261.800781 C 51.28125 252.609375 57.730469 244.222656 64.179688 235.996094 C 83.855469 211.324219 105.460938 188.425781 127.714844 166.171875 C 149.96875 143.917969 172.867188 122.3125 197.542969 102.796875 C 205.765625 96.347656 214.152344 89.898438 223.503906 85.058594 C 214.152344 89.738281 205.605469 96.027344 197.21875 102.316406 C 172.222656 121.503906 149.164062 143.113281 126.75 165.207031 Z M 717.277344 597.859375 L 702.925781 616.566406 C 697.601562 625.4375 694.214844 634.144531 693.085938 642.207031 C 690.023438 663.007812 681.476562 681.554688 667.929688 697.359375 C 667.929688 697.359375 721.953125 613.34375 666.800781 550.453125 C 665.351562 548.839844 665.511719 546.257812 667.125 544.808594 C 670.671875 541.257812 676.15625 541.257812 679.542969 544.644531 L 716.308594 581.414062 L 716.632812 581.734375 C 716.632812 581.734375 720.984375 585.445312 721.46875 589.796875 C 721.628906 591.734375 720.984375 593.507812 719.371094 595.441406 Z M 716.308594 585.929688 C 715.503906 584.636719 714.050781 583.507812 712.921875 582.378906 C 712.921875 582.378906 709.699219 579.316406 709.699219 579.316406 C 699.054688 569.15625 688.25 558.835938 677.285156 549 C 687.121094 559.964844 697.441406 570.769531 707.601562 581.414062 C 708.570312 582.542969 711.308594 585.121094 712.277344 586.25 C 714.375 588.347656 714.695312 591.734375 713.082031 594.3125 C 712.277344 595.28125 711.308594 596.570312 710.503906 597.699219 C 705.34375 604.472656 710.664062 599.796875 713.730469 597.699219 C 717.4375 595.28125 718.890625 589.796875 716.308594 585.929688 Z M 53.375 225.195312 C 42.25 239.382812 35.636719 249.867188 32.734375 257.445312 L 32.25 258.734375 L 19.996094 246.480469 L 19.996094 246.320312 C 18.0625 239.222656 42.570312 202.296875 102.882812 141.984375 C 163.191406 81.671875 200.121094 57.164062 207.054688 59.097656 L 207.214844 59.097656 L 219.472656 71.351562 L 218.183594 71.835938 C 210.601562 74.578125 200.121094 81.351562 185.929688 92.476562 C 166.417969 107.796875 141.746094 130.210938 116.429688 155.53125 C 91.109375 180.847656 68.695312 205.519531 53.375 225.195312 Z M 192.382812 67.160156 L 203.183594 77.964844 C 206.089844 76.03125 208.507812 74.578125 211.410156 73.128906 L 200.605469 62.324219 C 197.863281 63.773438 195.121094 65.386719 192.382812 67.160156 Z M 161.582031 90.21875 C 169.480469 87.640625 178.027344 87.480469 180.449219 94.734375 C 185.445312 90.703125 190.445312 86.835938 195.765625 83.125 L 184.800781 72.160156 C 181.253906 74.578125 178.027344 76.996094 174.644531 79.738281 C 170.289062 83.125 165.933594 86.671875 161.582031 90.21875 Z M 59.664062 190.523438 C 57.40625 193.101562 55.148438 195.683594 53.054688 198.101562 L 64.019531 209.066406 C 67.246094 205.359375 70.632812 201.488281 74.179688 197.457031 C 74.5 197.132812 74.664062 196.8125 74.984375 196.488281 C 68.535156 193.585938 66.761719 188.425781 69.984375 178.589844 C 66.761719 182.621094 63.050781 186.8125 59.664062 190.523438 Z M 34.1875 250.1875 C 39.507812 240.191406 47.734375 229.386719 55.3125 220.035156 C 56.441406 218.742188 57.40625 217.292969 58.535156 216 L 47.570312 205.035156 C 38.863281 215.839844 29.832031 227.289062 23.542969 239.546875 Z M 34.1875 250.1875 " fill-opacity="1" fill-rule="nonzero"/></svg>