<svg xmlns="http://www.w3.org/2000/svg" xmlns:xlink="http://www.w3.org/1999/xlink" width="1080" zoomAndPan="magnify" viewBox="0 0 810 809.999993" height="1080" preserveAspectRatio="xMidYMid meet" version="1.0"><path fill="#000000" d="M 747.5625 46.402344 L 62.4375 46.402344 C 28.6875 46.402344 0 75.089844 0 110.53125 L 0 699.507812 C 0 734.945312 28.6875 763.636719 62.4375 763.636719 L 745.875 763.636719 C 781.3125 763.636719 810 734.945312 810 699.507812 L 810 110.53125 C 810 75.089844 781.3125 46.402344 747.5625 46.402344 Z M 676.6875 253.976562 L 676.6875 451.429688 L 459 451.429688 L 459 556.058594 C 474.1875 569.5625 484.3125 588.125 484.3125 610.0625 C 484.3125 648.878906 452.25 680.941406 415.125 680.941406 C 378 680.941406 345.9375 648.878906 345.9375 610.0625 C 345.9375 588.125 356.0625 569.5625 371.25 556.058594 L 371.25 451.429688 L 243 451.429688 L 243 556.058594 C 258.1875 569.5625 268.3125 588.125 268.3125 610.0625 C 268.3125 648.878906 236.25 680.941406 199.125 680.941406 C 160.3125 680.941406 128.25 648.878906 128.25 610.0625 C 128.25 588.125 138.375 569.5625 153.5625 556.058594 L 153.5625 296.167969 C 116.4375 279.292969 91.125 242.164062 91.125 199.972656 C 91.125 140.90625 138.375 93.65625 197.4375 93.65625 C 256.5 93.65625 303.75 140.90625 303.75 199.972656 C 303.75 242.164062 278.4375 279.292969 241.3125 296.167969 L 241.3125 356.921875 L 369.5625 356.921875 L 369.5625 252.289062 C 354.375 238.789062 344.25 220.226562 344.25 198.285156 C 344.25 159.472656 376.3125 127.40625 413.4375 127.40625 C 450.5625 127.40625 482.625 159.472656 482.625 198.285156 C 482.625 220.226562 472.5 238.789062 457.3125 252.289062 L 457.3125 356.921875 L 585.5625 356.921875 L 585.5625 252.289062 C 570.375 238.789062 560.25 220.226562 560.25 198.285156 C 560.25 159.472656 592.3125 127.40625 631.125 127.40625 C 669.9375 127.40625 702 159.472656 702 198.285156 C 702 221.914062 691.875 240.476562 676.6875 253.976562 Z M 676.6875 253.976562 " fill-opacity="1" fill-rule="nonzero"/><path fill="#000000" d="M 264.9375 199.972656 C 264.9375 161.160156 232.875 129.09375 194.0625 129.09375 C 155.25 129.09375 124.875 161.160156 124.875 199.972656 C 124.875 238.789062 155.25 270.855469 194.0625 270.855469 C 234.5625 269.167969 264.9375 238.789062 264.9375 199.972656 Z M 264.9375 199.972656 " fill-opacity="1" fill-rule="nonzero"/></svg>