<svg xmlns="http://www.w3.org/2000/svg" xmlns:xlink="http://www.w3.org/1999/xlink" width="1080" zoomAndPan="magnify" viewBox="0 0 810 809.999993" height="1080" preserveAspectRatio="xMidYMid meet" version="1.0"><defs><clipPath id="490627593d"><path d="M 0 22.78125 L 810 22.78125 L 810 787.03125 L 0 787.03125 Z M 0 22.78125 " clip-rule="nonzero"/></clipPath></defs><g clip-path="url(#490627593d)"><path fill="#000000" d="M 809.253906 131.574219 C 809.253906 71.332031 761.585938 22.78125 703.128906 22.78125 L 352.839844 22.78125 C 316.863281 22.78125 281.789062 37.617188 256.609375 62.792969 L 26.378906 296.5625 C 9.742188 313.195312 0.296875 335.675781 0.296875 359.5 L 0.296875 678.238281 C 0.296875 738.480469 47.960938 787.03125 106.417969 787.03125 L 703.582031 787.03125 C 762.039062 787.03125 809.703125 738.480469 809.703125 678.238281 Z M 674.800781 562.25 L 539.902344 562.25 C 515.078125 562.25 494.933594 542.113281 494.933594 517.296875 C 494.933594 492.480469 515.078125 472.339844 539.902344 472.339844 L 674.800781 472.339844 C 699.625 472.339844 719.769531 492.480469 719.769531 517.296875 C 719.769531 542.113281 699.625 562.25 674.800781 562.25 Z M 112.265625 337.472656 L 320.460938 126.179688 C 329.007812 117.636719 340.699219 112.691406 352.839844 112.691406 L 703.128906 112.691406 C 712.125 112.691406 719.320312 121.234375 719.320312 131.574219 L 719.769531 337.472656 Z M 112.265625 337.472656 " fill-opacity="1" fill-rule="nonzero"/></g></svg>