<svg xmlns="http://www.w3.org/2000/svg" xmlns:xlink="http://www.w3.org/1999/xlink" width="1080" zoomAndPan="magnify" viewBox="0 0 810 809.999993" height="1080" preserveAspectRatio="xMidYMid meet" version="1.0"><path fill="#000000" d="M 405 73.636719 C 221.992188 73.636719 73.636719 221.992188 73.636719 405 C 73.636719 588.007812 221.992188 736.363281 405 736.363281 C 588.007812 736.363281 736.363281 588.007812 736.363281 405 C 736.363281 221.992188 588.007812 73.636719 405 73.636719 Z M 0 405 C 0 181.324219 181.324219 0 405 0 C 628.675781 0 810 181.324219 810 405 C 810 628.675781 628.675781 810 405 810 C 181.324219 810 0 628.675781 0 405 Z M 0 405 " fill-opacity="1" fill-rule="evenodd"/><path fill="#000000" d="M 282.257812 291.773438 L 61.578125 335.90625 L 47.136719 263.703125 L 267.816406 219.566406 C 358.378906 201.453125 451.632812 201.453125 542.199219 219.566406 L 762.875 263.703125 L 748.4375 335.90625 L 527.757812 291.773438 C 446.726562 275.566406 363.289062 275.566406 282.257812 291.773438 Z M 282.257812 291.773438 " fill-opacity="1" fill-rule="evenodd"/><path fill="#000000" d="M 98.121094 547.011719 L 54.363281 547.011719 L 54.363281 473.375 L 98.121094 473.375 C 213.191406 473.375 314.320312 549.660156 345.933594 660.300781 L 370.285156 745.535156 L 299.480469 765.761719 L 275.128906 680.527344 C 252.550781 601.5 180.316406 547.011719 98.121094 547.011719 Z M 534.898438 680.527344 L 510.546875 765.761719 L 439.742188 745.535156 L 464.09375 660.300781 C 495.707031 549.660156 596.832031 473.375 711.90625 473.375 L 755.664062 473.375 L 755.664062 547.011719 L 711.90625 547.011719 C 629.710938 547.011719 557.480469 601.5 534.898438 680.527344 Z M 534.898438 680.527344 " fill-opacity="1" fill-rule="evenodd"/><path fill="#000000" d="M 405.019531 389.21875 C 386.621094 389.21875 371.707031 404.132812 371.707031 422.53125 C 371.707031 440.929688 386.621094 455.847656 405.019531 455.847656 C 423.417969 455.847656 438.328125 440.929688 438.328125 422.53125 C 438.328125 404.132812 423.417969 389.21875 405.019531 389.21875 Z M 298.070312 422.53125 C 298.070312 363.464844 345.949219 315.585938 405.019531 315.585938 C 464.082031 315.585938 511.964844 363.464844 511.964844 422.53125 C 511.964844 481.601562 464.082031 529.480469 405.019531 529.480469 C 345.949219 529.480469 298.070312 481.601562 298.070312 422.53125 Z M 298.070312 422.53125 " fill-opacity="1" fill-rule="evenodd"/></svg>